<svg xmlns="http://www.w3.org/2000/svg" viewBox="0 0 32 32" width="32" height="32">
  <!-- Favicon: símbolo lleno (mejor visibilidad a tamaños pequeños) -->
  <defs>
    <linearGradient id="gf" x1="0%" y1="0%" x2="0%" y2="100%">
      <stop offset="0%" stop-color="#0f766e"/>
      <stop offset="100%" stop-color="#005c55"/>
    </linearGradient>
  </defs>
  <rect x="0" y="0" width="32" height="32" rx="6" fill="url(#gf)"/>
  <!-- Vertebrae simplificadas para tamaño pequeño -->
  <path d="M 16 6 Q 22 7 21 11 Q 20 13 16 13 Q 12 13 11 11 Q 10 7 16 6 Z" fill="#ffffff"/>
  <path d="M 16 13 Q 10 14 11 18 Q 12 20 16 20 Q 20 20 21 18 Q 22 14 16 13 Z" fill="#ffffff"/>
  <path d="M 16 20 Q 22 21 21 25 Q 20 27 16 27 Q 12 27 11 25 Q 10 21 16 20 Z" fill="#ffffff"/>
</svg>
